<svg xmlns="http://www.w3.org/2000/svg" width="117.627" height="26.249" viewBox="0 0 117.627 26.249"><g transform="translate(-672.65 -396.751)"><path d="M709.142,423V397.266h1.4v4.048a5.2,5.2,0,0,0,.456-.57,6.92,6.92,0,0,1,6.31-3.916c3.184-.1,5.769,1.084,7.289,3.916a12.578,12.578,0,0,1,.3,11.536c-1.416,3.175-4.913,4.752-8.657,4.172a7,7,0,0,1-5.588-3.687V423Zm1.4-16.63c.124,1.254.171,2.147.314,3.022.551,3.44,2.585,5.483,5.778,5.853a6.567,6.567,0,0,0,7.213-4.171,11.183,11.183,0,0,0-.248-9.2,6.433,6.433,0,0,0-6.775-3.745,6.265,6.265,0,0,0-5.6,4.628A31.888,31.888,0,0,0,710.539,406.37Z" fill="#fff"/><path d="M754.643,409.867a7.527,7.527,0,0,1-7.355,6.652c-5.854.294-8.6-3.592-9.038-8.078a12.939,12.939,0,0,1,1.141-7.127,7.955,7.955,0,0,1,8.277-4.438,7.6,7.6,0,0,1,6.747,5.787,39.062,39.062,0,0,1,.656,4.277H739.685c-.285,4.067,1.9,7.336,5,8.125,3.858.95,7.156-.722,8.353-4.391C753.3,409.734,753.788,409.6,754.643,409.867Zm-14.958-4.229h13.751c-.085-4.334-2.784-7.47-6.443-7.517C742.85,398.054,739.866,401.076,739.685,405.638Z" fill="#fff"/><path d="M757.475,409.962h1.35A5.4,5.4,0,0,0,762,414.618a8.3,8.3,0,0,0,7.2-.19,3.241,3.241,0,0,0,1.9-3.183,2.938,2.938,0,0,0-1.977-2.937c-1.483-.551-3.06-.855-4.571-1.34a33.48,33.48,0,0,1-4.6-1.682c-2.432-1.188-2.584-5.816.172-7.279a9.7,9.7,0,0,1,9.275-.143,4.885,4.885,0,0,1,2.47,4.98h-1.159c0-.057-.105-.1-.105-.162-.142-3.7-3.24-4.837-6.566-4.514a8.717,8.717,0,0,0-2.851.865,3.043,3.043,0,0,0,.247,5.531c1.463.532,2.993.874,4.495,1.292,1.207.333,2.461.552,3.63.951a4.285,4.285,0,0,1,2.946,3.867,4.573,4.573,0,0,1-2.461,4.752c-3.174,1.8-8.4,1.321-10.729-.95A6.339,6.339,0,0,1,757.475,409.962Z" fill="#fff"/><path d="M789.615,402.844h-1.264a3.152,3.152,0,0,0-.086-.466,4.133,4.133,0,0,0-3.364-3.972,8.3,8.3,0,0,0-5.331.256,3.24,3.24,0,0,0-2.347,3.089,2.984,2.984,0,0,0,2.28,3c1.9.589,3.849.95,5.778,1.482a16.466,16.466,0,0,1,1.844.561,4.752,4.752,0,0,1,.256,8.848,10.576,10.576,0,0,1-8.552.085,5.931,5.931,0,0,1-3.574-5.759h1.236a6.927,6.927,0,0,0,10.548,4.41,3.393,3.393,0,0,0,1.825-3.174,2.937,2.937,0,0,0-2.005-2.918c-1.483-.551-3.06-.846-4.571-1.33a33.752,33.752,0,0,1-4.628-1.663c-2.376-1.169-2.566-5.759.142-7.223a9.571,9.571,0,0,1,9.427-.1A4.971,4.971,0,0,1,789.615,402.844Z" fill="#fff"/><path d="M706.833,416.053a2.177,2.177,0,0,1-2.7-1.026c-1.549-2.319-3.259-4.533-4.9-6.8l-.712-.95c-1.958,2.623-3.916,5.141-5.7,7.754a2.092,2.092,0,0,1-2.566,1.008l7.346-9.855-6.833-8.9a2.27,2.27,0,0,1,2.709.95c1.587,2.319,3.345,4.533,5.093,6.88,1.758-2.328,3.5-4.552,5.122-6.852a2.044,2.044,0,0,1,2.547-.95l-2.651,3.516c-1.188,1.568-2.357,3.146-3.592,4.676a.95.95,0,0,0-.074,1.342,1.033,1.033,0,0,0,.074.074C702.262,409.933,704.514,412.955,706.833,416.053Z" fill="#fff"/><path d="M738.022,397.19v1.33a6.89,6.89,0,0,0-7.326,6.424c-.015.231-.018.463-.01.694v10.453h-1.359V397.266h1.33v3.858C732.3,398.311,734.839,397.266,738.022,397.19Z" fill="#fff"/><path d="M672.65,406.065c.2-.95.323-1.986.6-2.955,1.644-5.844,8.344-8.277,12.953-4.657,2.7,2.12,3.373,5.123,3.24,8.506H674.237c-.247,6.044,4.115,9.693,9.693,7.83a5.783,5.783,0,0,0,3.678-4.1c.3-.95.77-1.111,1.673-.836a7.719,7.719,0,0,1-3.688,5.636,8.932,8.932,0,0,1-10.405-1.331,9.362,9.362,0,0,1-2.338-5.493,4.582,4.582,0,0,0-.19-.95Q672.65,406.873,672.65,406.065Zm1.606-.408h13.751c-.085-4.381-2.851-7.489-6.538-7.517-4.1-.057-7.042,2.984-7.222,7.5Z" fill="#fff"/></g></svg>