<svg xmlns="http://www.w3.org/2000/svg" width="66.555" height="93.942" viewBox="0 0 66.555 93.942"><g transform="translate(-639.445 -217.23)"><path d="M706,235.692l-6.063,67.924-27.255,7.556-27.18-7.545-6.057-67.935Z" fill="#e44d26"/><path d="M672.723,305.4l22.023-6.106,5.181-58.044h-27.2V305.4Z" fill="#f16529"/><path d="M660.936,257.911h11.787v-8.332H651.83l.2,2.235,2.048,22.961h18.646v-8.332H661.7l-.761-8.532Z" fill="#333"/><path d="M662.814,278.941H654.45l1.167,13.082,17.067,4.738.039-.01v-8.669l-.037.01-9.279-2.506-.593-6.645Z" fill="#333"/><path d="M645.637,217.23h4.235v4.183h3.873V217.23h4.234V229.9h-4.234v-4.242h-3.873V229.9h-4.234V217.23Z" fill="#fff"/><path d="M663.547,221.431H659.82v-4.2h11.691v4.2h-3.729V229.9h-4.234v-8.467Z" fill="#fff"/><path d="M673.367,217.23h4.415l2.716,4.451,2.713-4.451h4.417V229.9h-4.217v-6.279l-2.913,4.5h-.073l-2.915-4.5V229.9h-4.143V217.23Z" fill="#fff"/><path d="M689.735,217.23h4.235v8.481h5.955V229.9h-10.19V217.23Z" fill="#fff"/><path d="M672.694,274.775h10.26l-.967,10.806-9.293,2.508v8.668l17.081-4.734.125-1.407,1.958-21.936.2-2.237H672.694v8.332Z" fill="#333"/><path d="M672.694,257.89v.021h20.125l.168-1.873.379-4.224.2-2.235H672.694v8.311Z" fill="#333"/></g></svg>