<svg xmlns="http://www.w3.org/2000/svg" viewBox="0 0 353.52 127.95"><defs><style>.cls-1{fill:#eaeaea;}</style></defs><title>logo-orion-rlopez</title><g id="Layer_2" data-name="Layer 2"><g id="Layer_1-2" data-name="Layer 1"><path class="cls-1" d="M119.91,63.37a30.52,30.52,0,0,1,23.55,10.26,32.2,32.2,0,0,1,8.47,22.26,31.88,31.88,0,0,1-9,22.45q-9,9.62-23,9.61t-23.07-9.61a33,33,0,0,1-.48-44.65A30.45,30.45,0,0,1,119.91,63.37Zm0,7.74A22.69,22.69,0,0,0,103,78.39,24.37,24.37,0,0,0,96,96a25.27,25.27,0,0,0,3.22,12.47,22.61,22.61,0,0,0,8.72,8.91,24.85,24.85,0,0,0,24.08,0,22.47,22.47,0,0,0,8.66-8.91A25.45,25.45,0,0,0,143.85,96a24.37,24.37,0,0,0-7.06-17.6A22.69,22.69,0,0,0,119.91,71.1Z"/><path class="cls-1" d="M163.47,99.75v-7.4a33.11,33.11,0,0,1,2.58-9Q170,73.68,176.59,69.2t11-4.48a14,14,0,0,1,7,2.13l-4.09,6.62q-5.21-1.91-10.34,3.08A27.17,27.17,0,0,0,173,87.42q-1.46,5.21-1.46,19.57v20.8h-8.07Z"/><path class="cls-1" d="M204,41.11A6.36,6.36,0,0,1,208.63,43a6.22,6.22,0,0,1,1.93,4.6A6.6,6.6,0,0,1,204,54.17a6.22,6.22,0,0,1-4.6-1.93,6.36,6.36,0,0,1-1.91-4.62,6.51,6.51,0,0,1,6.5-6.5Zm-3.92,25.28H208v61.5h-7.9Z"/><path class="cls-1" d="M253.39,63.37a30.52,30.52,0,0,1,23.55,10.26,32.2,32.2,0,0,1,8.47,22.26,31.88,31.88,0,0,1-9,22.45q-9,9.62-23,9.61t-23.07-9.61a33,33,0,0,1-.48-44.65A30.45,30.45,0,0,1,253.39,63.37Zm0,7.74a22.69,22.69,0,0,0-16.87,7.29A24.37,24.37,0,0,0,229.45,96a25.27,25.27,0,0,0,3.22,12.47,22.61,22.61,0,0,0,8.72,8.91,24.85,24.85,0,0,0,24.08,0,22.47,22.47,0,0,0,8.66-8.91A25.45,25.45,0,0,0,277.33,96a24.37,24.37,0,0,0-7.06-17.6A22.69,22.69,0,0,0,253.39,71.1Z"/><path class="cls-1" d="M299.92,104.57,299.81,98a41.87,41.87,0,0,1,.39-8.19q1.23-10.6,5.38-15.53a34.59,34.59,0,0,1,8.24-6.67,38.17,38.17,0,0,1,15.87-2.8,24.8,24.8,0,0,1,12.87,3.5A19.85,19.85,0,0,1,351,77.75q2.52,5.92,2.52,18.53v31.62h-7.85V98.57q0-10.65-.9-14.24-1.4-6.11-5.55-8.66t-12.28-2.55a20.93,20.93,0,0,0-12.78,4.15,12.41,12.41,0,0,0-5.21,11.32q-1.07,4.6-1.07,16.76v22.54h-8Z"/><circle class="cls-1" cx="59.02" cy="2.92" r="2.92"/><circle class="cls-1" cx="111.7" cy="39.12" r="2.92"/><circle class="cls-1" cx="44.66" cy="63.56" r="1.9"/><circle class="cls-1" cx="55.04" cy="62.31" r="1.9" transform="translate(-8.76 9) rotate(-8.66)"/><circle class="cls-1" cx="67.55" cy="60.4" r="1.9" transform="translate(-8.33 10.86) rotate(-8.66)"/><circle class="cls-1" cx="2.92" cy="92.27" r="2.92" transform="translate(-11.07 1.02) rotate(-6.91)"/><circle class="cls-1" cx="64.66" cy="111.43" r="2.92" transform="translate(-12.93 8.58) rotate(-6.91)"/></g></g></svg>