<svg xmlns="http://www.w3.org/2000/svg" width="231.226" height="65.881" viewBox="0 0 231.226 65.881"><g transform="translate(-476.093 -535.119)"><g transform="translate(-43 2)"><path d="M734.631,560.364c-.209.042-.417.5-.417.751-.042,1.669-.084,6.092-.084,9.1a.31.31,0,0,0,.25.25c.626.042,2.128.083,3.422.083a8.925,8.925,0,0,0,3.421-.5,4.431,4.431,0,0,0,2.211-4.173c0-4.047-2.837-5.591-7.051-5.591a6.728,6.728,0,0,0-1.752.084Zm10.765,18.65c0-4.13-3.046-6.425-8.554-6.425a24.039,24.039,0,0,0-2.42.042c-.125.041-.292.125-.292.25,0,2.962-.042,7.677.084,9.513a3.145,3.145,0,0,0,1.377,2.253,9.55,9.55,0,0,0,3.629.5c3.3,0,6.176-1.836,6.176-6.134Zm-19.277-20.945c.417,0,1.669.125,4.882.125,3.046,0,5.466-.083,8.428-.083,3.63,0,8.637,1.293,8.637,6.717a6.542,6.542,0,0,1-4.34,5.842c-.125.042-.125.125,0,.166,3.505.877,6.593,3.047,6.593,7.135,0,4.006-2.5,6.551-6.134,8.137a19.963,19.963,0,0,1-7.76,1.293c-2.128,0-7.844-.25-11.015-.167-.334-.125.292-1.627.584-1.878a7.766,7.766,0,0,0,2.128-.333c1.127-.292,1.251-.626,1.419-2.337.083-1.46.083-6.634.083-10.306,0-5.048.042-8.47,0-10.138-.042-1.294-.5-1.711-1.419-1.962-.709-.125-1.877-.292-2.837-.417-.209-.208.5-1.627.751-1.794Zm-24.074,25.952a8.4,8.4,0,0,0,4.715,1.127,9.242,9.242,0,0,0,6.675-2.379c2.212-2,3.755-5.09,3.755-10.013,0-4.715-1.794-8.554-5.465-10.806a14.76,14.76,0,0,0-7.844-1.836,6.236,6.236,0,0,0-2.337.292,1.228,1.228,0,0,0-.417.667c-.084.835-.084,7.26-.084,11.015,0,3.881,0,9.3.084,9.93a2.587,2.587,0,0,0,.918,2Zm-9.472-25.952c.793,0,3.839.125,5.3.125,2.629,0,4.506-.125,9.472-.125,4.172,0,7.677,1.127,10.18,3.254a13.528,13.528,0,0,1,4.631,10.682c0,6.3-2.879,9.93-5.758,12.016-2.878,2.128-6.634,3.38-11.974,3.38-2.837,0-7.719-.084-11.766-.125h-.042c-.208-.376.334-1.836.668-1.878a6.634,6.634,0,0,0,1.919-.375c.876-.334,1.043-.793,1.169-2.337.124-2.879.083-6.342.083-10.264,0-2.795.041-8.261-.042-10.014-.125-1.46-.751-1.835-2-2.086-.625-.125-1.46-.292-2.628-.417-.167-.292.584-1.585.792-1.836Z" fill="#8e714e"/><path d="M642.088,585.648a8.4,8.4,0,0,1-2.712-.709,1.269,1.269,0,0,1-.334-.667c-.083-1.461-.083-5.633-.083-8.429a9.836,9.836,0,0,0-1.335-5.591,5.7,5.7,0,0,0-4.84-2.5c-1.836,0-4.3,1.252-6.342,3-.042.042-.376.334-.334-.125,0-.459.083-1.377.125-2a1.083,1.083,0,0,0-.292-.876,27.825,27.825,0,0,1-6.467,1.669c-1,.209-1.252,1.168-.209,1.5h.042a9.273,9.273,0,0,1,2.462,1.085,1.3,1.3,0,0,1,.375,1.168c.042,3.13.042,7.928-.083,10.556-.042,1.043-.334,1.419-1.085,1.586l.083-.042a16.623,16.623,0,0,1-1.752.334,2.442,2.442,0,0,0,0,1.877c.459,0,2.879-.125,4.882-.125,2.754,0,4.172.125,4.881.125a2.714,2.714,0,0,0,.209-1.877,7.755,7.755,0,0,1-1.919-.292c-.751-.167-.96-.543-1-1.419-.083-2.211-.083-6.884-.083-10.055a2.01,2.01,0,0,1,.5-1.544,6.315,6.315,0,0,1,3.881-1.419,4.318,4.318,0,0,1,2.879.96,4.1,4.1,0,0,1,1.335,2.629c.208,1.794.125,5.34.125,8.428,0,1.669-.125,2.086-.751,2.294a7.9,7.9,0,0,1-1.919.376,2.441,2.441,0,0,0,0,1.878c1.21,0,2.628-.126,4.715-.126,2.586,0,4.255.126,4.923.126a2.911,2.911,0,0,0,.125-1.795Zm11.558-15.938c-2.212,0-3.589,1.711-3.589,4.381,0,2.712,1.21,5.841,4.632,5.841a3.232,3.232,0,0,0,2.169-.834,5.526,5.526,0,0,0,1.336-3.839c0-3.463-1.711-5.549-4.548-5.549Zm-.293,18.442a3.58,3.58,0,0,0-1.793.459c-1.753,1.126-2.546,2.211-2.546,3.505a3.69,3.69,0,0,0,1.461,3,7.41,7.41,0,0,0,5.006,1.544c4.256,0,6.134-2.295,6.134-4.548a3.189,3.189,0,0,0-2.42-3.213,16.856,16.856,0,0,0-5.842-.751ZM653.646,599a9.239,9.239,0,0,1-5.967-1.752,5.5,5.5,0,0,1-2.211-4.131,3.194,3.194,0,0,1,.834-2.086,22.159,22.159,0,0,1,3.839-3.088c.083-.041.125-.083.125-.167a.277.277,0,0,0-.167-.208,3.969,3.969,0,0,1-2.712-2.629v-.083c-.042-.251-.125-.5.25-.751.292-.209.71-.459,1.168-.751a17.1,17.1,0,0,0,1.92-1.252.308.308,0,0,0,.083-.25.276.276,0,0,0-.167-.209c-2.92-.96-4.38-3.129-4.38-6.384a6.333,6.333,0,0,1,2.67-5.257,12.264,12.264,0,0,1,6.008-2.044h.125a12.8,12.8,0,0,1,4.59,1,7.719,7.719,0,0,0,2.712.417,3.611,3.611,0,0,0,2.92-1.084,2.255,2.255,0,0,1,.167.834,3.15,3.15,0,0,1-.542,1.919,2.371,2.371,0,0,1-1.836.793h-.209a9.167,9.167,0,0,1-1.085-.167l-.166.084c-.042.083,0,.166.042.292l.041.083a15.489,15.489,0,0,1,.251,1.794,6.759,6.759,0,0,1-2.838,6.05,9.6,9.6,0,0,1-4.881,1.878,5.3,5.3,0,0,0-.584.041c-.209,0-.5.042-.543.042h-.042c-.333.083-1.168.5-1.168,1.21,0,.626.376,1.377,2.17,1.5.375.042.751.042,1.168.084a36.551,36.551,0,0,1,6.718.834,4.676,4.676,0,0,1,3.129,4.465c0,3.087-2.212,5.966-5.883,7.76a13.419,13.419,0,0,1-5.549,1.21Zm23.782-29.081a3.876,3.876,0,0,0-2.253.625c-1.627,1-2.462,3.005-2.462,5.925,0,5.466,2.754,9.3,6.676,9.3a4.245,4.245,0,0,0,2.879-1c1.21-1,1.836-3,1.836-5.8,0-5.424-2.713-9.054-6.676-9.054Zm.751,17.857c-7.093,0-9.638-5.215-9.638-10.1a9.032,9.032,0,0,1,4.13-7.927,12.56,12.56,0,0,1,6.384-1.878c5.424,0,9.221,3.881,9.221,9.472a9.687,9.687,0,0,1-4.381,8.636,11.569,11.569,0,0,1-5.716,1.794Zm-74.351-17.857a3.874,3.874,0,0,0-2.253.625c-1.628,1-2.462,3.005-2.462,5.925,0,5.466,2.754,9.3,6.676,9.3a4.245,4.245,0,0,0,2.879-1c1.209-1,1.836-3,1.836-5.8,0-5.424-2.671-9.054-6.676-9.054Zm.751,17.857c-7.093,0-9.638-5.215-9.638-10.1a9.03,9.03,0,0,1,4.13-7.927,12.558,12.558,0,0,1,6.384-1.878c5.424,0,9.221,3.881,9.221,9.472a9.687,9.687,0,0,1-4.381,8.636,11.3,11.3,0,0,1-5.716,1.794Zm-47.69-.417a1.78,1.78,0,0,1-.125-.959,1.406,1.406,0,0,1,.125-.626,15.367,15.367,0,0,0,1.835-.376c.835-.209,1.169-.667,1.211-1.71.125-2.5.125-7.261.083-10.557v-.083a1.262,1.262,0,0,0-.459-1.168,9.392,9.392,0,0,0-2.5-1.085c-.376-.125-.626-.334-.584-.584,0-.251.25-.543.792-.626a30.531,30.531,0,0,0,6.384-1.627,1.034,1.034,0,0,1,.209.667l-.042.459c-.042.459-.084,1-.084,1.544a.322.322,0,0,0,.334.292.593.593,0,0,0,.251-.084c2.67-2.086,5.09-2.837,6.341-2.837a5.4,5.4,0,0,1,4.841,2.963.313.313,0,0,0,.292.166.3.3,0,0,0,.25-.124c2.461-1.878,4.923-3.005,6.55-3.005,3.881,0,6.176,2.879,6.176,7.761,0,1.377,0,3.171-.042,4.8,0,1.46-.042,2.8-.042,3.755a1.314,1.314,0,0,0,.751,1,8.916,8.916,0,0,0,2.42.584h.042a3.361,3.361,0,0,1-.25,1.585,10.383,10.383,0,0,1-1.043-.041c-.793-.042-1.92-.084-3.172-.084-2.587,0-3.922.042-5.215.125a4.059,4.059,0,0,1,0-1.585,12.912,12.912,0,0,0,1.585-.376c.835-.25,1.043-.626,1.085-1.71,0-.793.167-7.552-.083-9.18A4.114,4.114,0,0,0,580.546,571a7.4,7.4,0,0,0-4.256,1.627.743.743,0,0,0-.167.417v.042a19.244,19.244,0,0,1,.167,3.421v2.712c0,1.878-.042,3.63,0,4.965a1.223,1.223,0,0,0,1,1.294c.25.041.417.083.625.125.376.083.752.167,1.336.292a2.262,2.262,0,0,1-.042,1.168.8.8,0,0,1-.167.417c-1.419-.041-2.879-.083-5.007-.083-.626,0-1.71.042-2.629.042-.751,0-1.46.041-1.877.041a2.2,2.2,0,0,1-.125-.834,1.294,1.294,0,0,1,.167-.751,2.788,2.788,0,0,1,.584-.083c.5-.084.918-.168,1.335-.251.709-.209.959-.584,1-1.5a72.287,72.287,0,0,0-.042-9.555c-.5-2.42-1.877-3.63-4.088-3.63a7.656,7.656,0,0,0-4.256,1.628,1.348,1.348,0,0,0-.376.959v2.462c0,3,0,6.759.042,8.386a1.3,1.3,0,0,0,1.168,1.294,8.908,8.908,0,0,0,.96.167l.751.125a3.5,3.5,0,0,1-.125,1.585c-.418,0-.918-.041-1.5-.041-.876-.042-2-.084-3.255-.084-1.46,0-2.5.042-3.338.084a10.035,10.035,0,0,0-1.543-.084Z" fill="#fff"/><path d="M534.942,597.373l-1.711-.584s.209-8.721-2.92-9.346c-2.086-2.42.334-102.64,7.844-.334,0,0-2.587,1.293-3.046,3.505a32.165,32.165,0,0,0-.167,6.759Z" fill="#fff"/><path d="M534.942,597.373l-1.711-.584s.209-8.721-2.92-9.346c-2.086-2.42.334-102.64,7.844-.334,0,0-2.587,1.293-3.046,3.505a32.165,32.165,0,0,0-.167,6.759Z" fill="#a6a385"/><path d="M535.86,588.945s14.979-9.847,11.474-30.333c-3.379-14.9-11.349-19.777-12.225-21.655a21.1,21.1,0,0,1-1.878-3.671l.627,41.431c0,.042-1.294,12.684,2,14.228" fill="#fff"/><path d="M535.86,588.945s14.979-9.847,11.474-30.333c-3.379-14.9-11.349-19.777-12.225-21.655a21.1,21.1,0,0,1-1.878-3.671l.627,41.431c0,.042-1.294,12.684,2,14.228" fill="#499d4a"/><path d="M532.355,589.487s-14.06-9.6-13.226-26.494c.793-16.9,10.723-25.2,12.642-26.7a3.882,3.882,0,0,0,1.377-3.171c.876,1.877.71,28.08.834,31.167.376,11.891-.667,22.948-1.627,25.2Z" fill="#fff"/><path d="M532.355,589.487s-14.06-9.6-13.226-26.494c.793-16.9,10.723-25.2,12.642-26.7a3.882,3.882,0,0,0,1.377-3.171c.876,1.877.71,28.08.834,31.167.376,11.891-.667,22.948-1.627,25.2Z" fill="#58aa50"/></g></g></svg>