<svg xmlns="http://www.w3.org/2000/svg" width="133.002" height="37.558" viewBox="0 0 133.002 37.558"><g transform="translate(-515.184 -382.868)"><path d="M637.533,396.2a1.848,1.848,0,0,0-.917.224l-8.818,5.093a1.858,1.858,0,0,0-.918,1.61v10.166a1.859,1.859,0,0,0,.918,1.61l2.3,1.33a3.768,3.768,0,0,0,2.041.542,2.439,2.439,0,0,0,2.6-2.752V403.986a.251.251,0,0,0-.262-.243h-1.1a.25.25,0,0,0-.262.243v10.035c0,.775-.807,1.553-2.116.9l-2.4-1.4a.265.265,0,0,1-.15-.225V403.125a.3.3,0,0,1,.15-.243l8.8-5.074a.261.261,0,0,1,.262,0l8.8,5.074a.3.3,0,0,1,.15.243v10.167a.283.283,0,0,1-.131.243l-8.818,5.073a.271.271,0,0,1-.262,0l-2.265-1.347a.236.236,0,0,0-.225,0,5.874,5.874,0,0,1-1.329.6c-.145.05-.364.128.074.374l2.959,1.741a1.819,1.819,0,0,0,.917.244,1.8,1.8,0,0,0,.917-.244l8.818-5.074a1.859,1.859,0,0,0,.918-1.609V403.125a1.86,1.86,0,0,0-.918-1.61l-8.818-5.092a1.833,1.833,0,0,0-.917-.225Z" fill="#83cd29"/><path d="M639.892,403.462c-2.511,0-4.007,1.069-4.007,2.846,0,1.928,1.485,2.457,3.9,2.7,2.883.282,3.107.706,3.107,1.273,0,.984-.784,1.4-2.639,1.4-2.331,0-2.843-.582-3.014-1.741a.256.256,0,0,0-.244-.225h-1.142a.268.268,0,0,0-.262.263c0,1.484.807,3.238,4.662,3.238,2.79,0,4.4-1.1,4.4-3.014,0-1.9-1.3-2.413-4.006-2.771-2.735-.362-3-.539-3-1.179,0-.529.221-1.236,2.247-1.236,1.809,0,2.478.39,2.752,1.61a.256.256,0,0,0,.243.206h1.143a.276.276,0,0,0,.187-.094.246.246,0,0,0,.075-.187c-.177-2.1-1.578-3.089-4.4-3.089Z" fill="#83cd29"/><path d="M585.692,382.868a.561.561,0,0,0-.562.561v14.323a.379.379,0,0,1-.187.337.389.389,0,0,1-.393,0l-2.341-1.348a1.121,1.121,0,0,0-1.123,0l-9.342,5.392a1.148,1.148,0,0,0-.562.992v10.784a1.119,1.119,0,0,0,.562.973l9.342,5.393a1.121,1.121,0,0,0,1.123,0l9.343-5.393a1.118,1.118,0,0,0,.561-.973V387.024a1.14,1.14,0,0,0-.58-.992l-5.561-3.108a.544.544,0,0,0-.28-.056Zm-60.1,13.461a1.047,1.047,0,0,0-.505.131l-9.343,5.392a1.12,1.12,0,0,0-.562.973L515.2,417.3a.562.562,0,0,0,.843.487l5.541-3.183a1.145,1.145,0,0,0,.581-.974V406.87a1.118,1.118,0,0,1,.561-.974l2.359-1.367a1.128,1.128,0,0,1,1.124,0l2.359,1.367a1.118,1.118,0,0,1,.561.974v6.758a1.146,1.146,0,0,0,.581.974l5.541,3.183a.55.55,0,0,0,.562,0,.563.563,0,0,0,.281-.487l.018-14.473a1.111,1.111,0,0,0-.561-.973l-9.342-5.392a1.042,1.042,0,0,0-.506-.131Zm83.949.131a1.114,1.114,0,0,0-.561.15L599.64,402a1.118,1.118,0,0,0-.562.973v10.784a1.128,1.128,0,0,0,.58.974l9.268,5.279a1.123,1.123,0,0,0,1.1.019l5.617-3.127a.565.565,0,0,0,.3-.486.552.552,0,0,0-.28-.487l-9.4-5.392a.606.606,0,0,1-.3-.506v-3.369a.578.578,0,0,1,.3-.487l2.921-1.685a.559.559,0,0,1,.562,0l2.92,1.685a.56.56,0,0,1,.281.486v2.659a.562.562,0,0,0,.842.486l5.6-3.257a1.124,1.124,0,0,0,.562-.973v-2.6a1.123,1.123,0,0,0-.562-.974L610.1,396.61a1.106,1.106,0,0,0-.562-.15Zm-27.933,8.051a.317.317,0,0,1,.15.037l3.2,1.853a.29.29,0,0,1,.15.244v3.706a.288.288,0,0,1-.15.244l-3.2,1.853a.282.282,0,0,1-.281,0l-3.2-1.853a.29.29,0,0,1-.15-.244v-3.706a.291.291,0,0,1,.15-.244l3.2-1.853a.252.252,0,0,1,.131-.037Z" fill="#fff"/><path d="M553.658,396.4a1.111,1.111,0,0,0-.561.15l-9.343,5.373a1.149,1.149,0,0,0-.561.992V413.7a1.121,1.121,0,0,0,.561.974l9.343,5.391a1.116,1.116,0,0,0,1.123,0l9.342-5.391a1.122,1.122,0,0,0,.562-.974V402.919a1.15,1.15,0,0,0-.562-.992l-9.342-5.373a1.111,1.111,0,0,0-.562-.15Zm55.867,9.623a.224.224,0,0,0-.112.019l-1.8,1.048a.218.218,0,0,0-.112.188v2.059a.22.22,0,0,0,.112.187l1.8,1.03a.194.194,0,0,0,.2,0l1.8-1.03a.22.22,0,0,0,.112-.187v-2.06a.22.22,0,0,0-.112-.187l-1.8-1.048a.151.151,0,0,0-.093-.019Z" fill="#83cd29"/></g></svg>