<svg xmlns="http://www.w3.org/2000/svg" xmlns:xlink="http://www.w3.org/1999/xlink" width="428.692" height="584.906" viewBox="0 0 428.692 584.906"><defs><linearGradient id="a" x1="-0.256" y1="0.894" x2="0.881" y2="0.301" gradientUnits="objectBoundingBox"><stop offset="0" stop-color="#333"/><stop offset="0.067" stop-color="#2f2f2f"/><stop offset="0.13" stop-color="#242424"/><stop offset="0.19" stop-color="#111"/><stop offset="0.231"/><stop offset="0.243" stop-color="#010101"/><stop offset="1" stop-color="#444"/></linearGradient><linearGradient id="b" x1="0.062" y1="1" x2="1.139" y2="-0.229" gradientUnits="objectBoundingBox"><stop offset="0.027" stop-color="#e8e8e9"/><stop offset="0.887" stop-color="#fff"/></linearGradient><linearGradient id="c" x1="0.695" y1="-1.108" x2="0.276" y2="2.348" gradientUnits="objectBoundingBox"><stop offset="0.231"/><stop offset="1" stop-color="#1c1c1c"/></linearGradient><linearGradient id="d" x1="1.433" y1="0.167" x2="-0.157" y2="0.721" gradientUnits="objectBoundingBox"><stop offset="0"/><stop offset="0.291" stop-color="#020202"/><stop offset="0.428" stop-color="#090909"/><stop offset="0.534" stop-color="#161616"/><stop offset="0.623" stop-color="#282828"/><stop offset="0.702" stop-color="#404040"/><stop offset="0.773" stop-color="#5e5e5e"/><stop offset="0.839" stop-color="#818181"/><stop offset="0.901" stop-color="#aaa"/><stop offset="0.957" stop-color="#d6d6d6"/><stop offset="1" stop-color="#fff"/></linearGradient><filter id="e" x="27" y="38" width="387" height="65" filterUnits="userSpaceOnUse"><feOffset dy="3" input="SourceAlpha"/><feGaussianBlur stdDeviation="3" result="f"/><feFlood flood-opacity="0.161"/><feComposite operator="in" in2="f"/><feComposite in="SourceGraphic"/></filter><filter id="g" x="18" y="33" width="405" height="75" filterUnits="userSpaceOnUse"><feOffset dy="3" input="SourceAlpha"/><feGaussianBlur stdDeviation="3" result="h"/><feFlood flood-opacity="0.161"/><feComposite operator="in" in2="h"/><feComposite in="SourceGraphic"/></filter><filter id="i" x="40" y="47" width="306" height="46" filterUnits="userSpaceOnUse"><feOffset dy="3" input="SourceAlpha"/><feGaussianBlur stdDeviation="3" result="j"/><feFlood flood-opacity="0.161"/><feComposite operator="in" in2="j"/><feComposite in="SourceGraphic"/></filter><clipPath id="k"><rect width="356.934" height="402.096" fill="none"/></clipPath><filter id="l" x="42.174" y="108.842" width="153.934" height="161.096" filterUnits="userSpaceOnUse"><feOffset dy="1" input="SourceAlpha"/><feGaussianBlur stdDeviation="1.5" result="m"/><feFlood flood-opacity="0.4"/><feComposite operator="in" in2="m"/><feComposite in="SourceGraphic"/></filter><linearGradient id="n" x1="0.426" x2="0.555" y2="1" gradientUnits="objectBoundingBox"><stop offset="0" stop-color="#545454"/><stop offset="0.481" stop-color="#686868"/><stop offset="1" stop-color="#545454"/></linearGradient><filter id="o" x="45" y="186" width="89" height="32" filterUnits="userSpaceOnUse"><feOffset dy="1" input="SourceAlpha"/><feGaussianBlur stdDeviation="3" result="p"/><feFlood flood-opacity="0.161"/><feComposite operator="in" in2="p"/><feComposite in="SourceGraphic"/></filter><filter id="q" x="45" y="208" width="142" height="25" filterUnits="userSpaceOnUse"><feOffset dy="1" input="SourceAlpha"/><feGaussianBlur stdDeviation="3" result="r"/><feFlood flood-opacity="0.161"/><feComposite operator="in" in2="r"/><feComposite in="SourceGraphic"/></filter><filter id="s" x="45" y="219" width="113" height="25" filterUnits="userSpaceOnUse"><feOffset dy="1" input="SourceAlpha"/><feGaussianBlur stdDeviation="3" result="t"/><feFlood flood-opacity="0.161"/><feComposite operator="in" in2="t"/><feComposite in="SourceGraphic"/></filter><linearGradient id="u" x1="0.204" y1="-0.304" x2="0.862" y2="1.225" gradientUnits="objectBoundingBox"><stop offset="0" stop-color="#42f4b1"/><stop offset="0.385" stop-color="#42f4b1"/><stop offset="0.51" stop-color="#bbf8e1"/><stop offset="0.619" stop-color="#42f4b1"/><stop offset="1" stop-color="#42f4b1"/></linearGradient><filter id="v" x="116" y="237" width="77" height="32" filterUnits="userSpaceOnUse"><feOffset dy="3" input="SourceAlpha"/><feGaussianBlur stdDeviation="3" result="w"/><feFlood flood-opacity="0.161"/><feComposite operator="in" in2="w"/><feComposite in="SourceGraphic"/></filter><linearGradient id="x" x1="0.204" y1="-0.304" x2="0.862" y2="1.225" gradientUnits="objectBoundingBox"><stop offset="0" stop-color="#4285f4"/><stop offset="0.385" stop-color="#84aced"/><stop offset="0.51" stop-color="#a3bee9"/><stop offset="0.619" stop-color="#89afec"/><stop offset="1" stop-color="#4285f4"/></linearGradient><filter id="y" x="45" y="237" width="77" height="32" filterUnits="userSpaceOnUse"><feOffset dy="3" input="SourceAlpha"/><feGaussianBlur stdDeviation="3" result="z"/><feFlood flood-opacity="0.161"/><feComposite operator="in" in2="z"/><feComposite in="SourceGraphic"/></filter><filter id="aa" x="232.174" y="108.842" width="153.934" height="161.096" filterUnits="userSpaceOnUse"><feOffset dy="1" input="SourceAlpha"/><feGaussianBlur stdDeviation="1.5" result="ab"/><feFlood flood-opacity="0.4"/><feComposite operator="in" in2="ab"/><feComposite in="SourceGraphic"/></filter><filter id="ad" x="235" y="186" width="89" height="32" filterUnits="userSpaceOnUse"><feOffset dy="1" input="SourceAlpha"/><feGaussianBlur stdDeviation="3" result="ae"/><feFlood flood-opacity="0.161"/><feComposite operator="in" in2="ae"/><feComposite in="SourceGraphic"/></filter><filter id="af" x="235" y="208" width="142" height="25" filterUnits="userSpaceOnUse"><feOffset dy="1" input="SourceAlpha"/><feGaussianBlur stdDeviation="3" result="ag"/><feFlood flood-opacity="0.161"/><feComposite operator="in" in2="ag"/><feComposite in="SourceGraphic"/></filter><filter id="ah" x="235" y="219" width="113" height="25" filterUnits="userSpaceOnUse"><feOffset dy="1" input="SourceAlpha"/><feGaussianBlur stdDeviation="3" result="ai"/><feFlood flood-opacity="0.161"/><feComposite operator="in" in2="ai"/><feComposite in="SourceGraphic"/></filter><filter id="ak" x="306" y="237" width="77" height="32" filterUnits="userSpaceOnUse"><feOffset dy="3" input="SourceAlpha"/><feGaussianBlur stdDeviation="3" result="al"/><feFlood flood-opacity="0.161"/><feComposite operator="in" in2="al"/><feComposite in="SourceGraphic"/></filter><filter id="an" x="235" y="237" width="77" height="32" filterUnits="userSpaceOnUse"><feOffset dy="3" input="SourceAlpha"/><feGaussianBlur stdDeviation="3" result="ao"/><feFlood flood-opacity="0.161"/><feComposite operator="in" in2="ao"/><feComposite in="SourceGraphic"/></filter><filter id="ap" x="42.174" y="290.842" width="153.934" height="161.096" filterUnits="userSpaceOnUse"><feOffset dy="1" input="SourceAlpha"/><feGaussianBlur stdDeviation="1.5" result="aq"/><feFlood flood-opacity="0.4"/><feComposite operator="in" in2="aq"/><feComposite in="SourceGraphic"/></filter><filter id="as" x="45" y="368" width="89" height="32" filterUnits="userSpaceOnUse"><feOffset dy="1" input="SourceAlpha"/><feGaussianBlur stdDeviation="3" result="at"/><feFlood flood-opacity="0.161"/><feComposite operator="in" in2="at"/><feComposite in="SourceGraphic"/></filter><filter id="au" x="45" y="390" width="142" height="25" filterUnits="userSpaceOnUse"><feOffset dy="1" input="SourceAlpha"/><feGaussianBlur stdDeviation="3" result="av"/><feFlood flood-opacity="0.161"/><feComposite operator="in" in2="av"/><feComposite in="SourceGraphic"/></filter><filter id="aw" x="45" y="401" width="113" height="25" filterUnits="userSpaceOnUse"><feOffset dy="1" input="SourceAlpha"/><feGaussianBlur stdDeviation="3" result="ax"/><feFlood flood-opacity="0.161"/><feComposite operator="in" in2="ax"/><feComposite in="SourceGraphic"/></filter><filter id="az" x="116" y="419" width="77" height="32" filterUnits="userSpaceOnUse"><feOffset dy="3" input="SourceAlpha"/><feGaussianBlur stdDeviation="3" result="ba"/><feFlood flood-opacity="0.161"/><feComposite operator="in" in2="ba"/><feComposite in="SourceGraphic"/></filter><filter id="bc" x="45" y="419" width="77" height="32" filterUnits="userSpaceOnUse"><feOffset dy="3" input="SourceAlpha"/><feGaussianBlur stdDeviation="3" result="bd"/><feFlood flood-opacity="0.161"/><feComposite operator="in" in2="bd"/><feComposite in="SourceGraphic"/></filter><filter id="be" x="232.174" y="290.842" width="153.934" height="161.096" filterUnits="userSpaceOnUse"><feOffset dy="1" input="SourceAlpha"/><feGaussianBlur stdDeviation="1.5" result="bf"/><feFlood flood-opacity="0.4"/><feComposite operator="in" in2="bf"/><feComposite in="SourceGraphic"/></filter><filter id="bh" x="235" y="368" width="89" height="32" filterUnits="userSpaceOnUse"><feOffset dy="1" input="SourceAlpha"/><feGaussianBlur stdDeviation="3" result="bi"/><feFlood flood-opacity="0.161"/><feComposite operator="in" in2="bi"/><feComposite in="SourceGraphic"/></filter><filter id="bj" x="235" y="390" width="142" height="25" filterUnits="userSpaceOnUse"><feOffset dy="1" input="SourceAlpha"/><feGaussianBlur stdDeviation="3" result="bk"/><feFlood flood-opacity="0.161"/><feComposite operator="in" in2="bk"/><feComposite in="SourceGraphic"/></filter><filter id="bl" x="235" y="401" width="113" height="25" filterUnits="userSpaceOnUse"><feOffset dy="1" input="SourceAlpha"/><feGaussianBlur stdDeviation="3" result="bm"/><feFlood flood-opacity="0.161"/><feComposite operator="in" in2="bm"/><feComposite in="SourceGraphic"/></filter><filter id="bo" x="306" y="419" width="77" height="32" filterUnits="userSpaceOnUse"><feOffset dy="3" input="SourceAlpha"/><feGaussianBlur stdDeviation="3" result="bp"/><feFlood flood-opacity="0.161"/><feComposite operator="in" in2="bp"/><feComposite in="SourceGraphic"/></filter><filter id="br" x="235" y="419" width="77" height="32" filterUnits="userSpaceOnUse"><feOffset dy="3" input="SourceAlpha"/><feGaussianBlur stdDeviation="3" result="bs"/><feFlood flood-opacity="0.161"/><feComposite operator="in" in2="bs"/><feComposite in="SourceGraphic"/></filter><filter id="bt" x="42.174" y="472.842" width="153.934" height="161.096" filterUnits="userSpaceOnUse"><feOffset dy="1" input="SourceAlpha"/><feGaussianBlur stdDeviation="1.5" result="bu"/><feFlood flood-opacity="0.4"/><feComposite operator="in" in2="bu"/><feComposite in="SourceGraphic"/></filter><filter id="bw" x="45" y="550" width="89" height="32" filterUnits="userSpaceOnUse"><feOffset dy="1" input="SourceAlpha"/><feGaussianBlur stdDeviation="3" result="bx"/><feFlood flood-opacity="0.161"/><feComposite operator="in" in2="bx"/><feComposite in="SourceGraphic"/></filter><filter id="by" x="45" y="572" width="142" height="25" filterUnits="userSpaceOnUse"><feOffset dy="1" input="SourceAlpha"/><feGaussianBlur stdDeviation="3" result="bz"/><feFlood flood-opacity="0.161"/><feComposite operator="in" in2="bz"/><feComposite in="SourceGraphic"/></filter><filter id="ca" x="45" y="583" width="113" height="25" filterUnits="userSpaceOnUse"><feOffset dy="1" input="SourceAlpha"/><feGaussianBlur stdDeviation="3" result="cb"/><feFlood flood-opacity="0.161"/><feComposite operator="in" in2="cb"/><feComposite in="SourceGraphic"/></filter><filter id="cd" x="116" y="601" width="77" height="32" filterUnits="userSpaceOnUse"><feOffset dy="3" input="SourceAlpha"/><feGaussianBlur stdDeviation="3" result="ce"/><feFlood flood-opacity="0.161"/><feComposite operator="in" in2="ce"/><feComposite in="SourceGraphic"/></filter><filter id="cg" x="45" y="601" width="77" height="32" filterUnits="userSpaceOnUse"><feOffset dy="3" input="SourceAlpha"/><feGaussianBlur stdDeviation="3" result="ch"/><feFlood flood-opacity="0.161"/><feComposite operator="in" in2="ch"/><feComposite in="SourceGraphic"/></filter><filter id="ci" x="232.174" y="472.842" width="153.934" height="161.096" filterUnits="userSpaceOnUse"><feOffset dy="1" input="SourceAlpha"/><feGaussianBlur stdDeviation="1.5" result="cj"/><feFlood flood-opacity="0.4"/><feComposite operator="in" in2="cj"/><feComposite in="SourceGraphic"/></filter><filter id="cl" x="235" y="550" width="89" height="32" filterUnits="userSpaceOnUse"><feOffset dy="1" input="SourceAlpha"/><feGaussianBlur stdDeviation="3" result="cm"/><feFlood flood-opacity="0.161"/><feComposite operator="in" in2="cm"/><feComposite in="SourceGraphic"/></filter><filter id="cn" x="235" y="572" width="142" height="25" filterUnits="userSpaceOnUse"><feOffset dy="1" input="SourceAlpha"/><feGaussianBlur stdDeviation="3" result="co"/><feFlood flood-opacity="0.161"/><feComposite operator="in" in2="co"/><feComposite in="SourceGraphic"/></filter><filter id="cp" x="235" y="583" width="113" height="25" filterUnits="userSpaceOnUse"><feOffset dy="1" input="SourceAlpha"/><feGaussianBlur stdDeviation="3" result="cq"/><feFlood flood-opacity="0.161"/><feComposite operator="in" in2="cq"/><feComposite in="SourceGraphic"/></filter><filter id="cs" x="306" y="601" width="77" height="32" filterUnits="userSpaceOnUse"><feOffset dy="3" input="SourceAlpha"/><feGaussianBlur stdDeviation="3" result="ct"/><feFlood flood-opacity="0.161"/><feComposite operator="in" in2="ct"/><feComposite in="SourceGraphic"/></filter><filter id="cv" x="235" y="601" width="77" height="32" filterUnits="userSpaceOnUse"><feOffset dy="3" input="SourceAlpha"/><feGaussianBlur stdDeviation="3" result="cw"/><feFlood flood-opacity="0.161"/><feComposite operator="in" in2="cw"/><feComposite in="SourceGraphic"/></filter><filter id="cx" x="0" y="21" width="219" height="526" filterUnits="userSpaceOnUse"><feOffset dy="9" input="SourceAlpha"/><feGaussianBlur stdDeviation="9" result="cy"/><feFlood flood-opacity="0.18"/><feComposite operator="in" in2="cy"/><feComposite in="SourceGraphic"/></filter><linearGradient id="cz" x1="0.198" y1="-0.555" x2="0.845" y2="1.572" gradientUnits="objectBoundingBox"><stop offset="0" stop-color="#737373"/><stop offset="0.319" stop-color="gray"/><stop offset="0.502" stop-color="#989898"/><stop offset="0.66" stop-color="#727272"/><stop offset="1" stop-color="#737373"/></linearGradient><filter id="da" x="33" y="144" width="136" height="32" filterUnits="userSpaceOnUse"><feOffset dy="3" input="SourceAlpha"/><feGaussianBlur stdDeviation="3" result="db"/><feFlood flood-opacity="0.161"/><feComposite operator="in" in2="db"/><feComposite in="SourceGraphic"/></filter><filter id="dd" x="33" y="191" width="84" height="32" filterUnits="userSpaceOnUse"><feOffset dy="3" input="SourceAlpha"/><feGaussianBlur stdDeviation="3" result="de"/><feFlood flood-opacity="0.161"/><feComposite operator="in" in2="de"/><feComposite in="SourceGraphic"/></filter><filter id="dg" x="33" y="237" width="73" height="33" filterUnits="userSpaceOnUse"><feOffset dy="3" input="SourceAlpha"/><feGaussianBlur stdDeviation="3" result="dh"/><feFlood flood-opacity="0.161"/><feComposite operator="in" in2="dh"/><feComposite in="SourceGraphic"/></filter><filter id="dj" x="33" y="281" width="136" height="31" filterUnits="userSpaceOnUse"><feOffset dy="3" input="SourceAlpha"/><feGaussianBlur stdDeviation="3" result="dk"/><feFlood flood-opacity="0.161"/><feComposite operator="in" in2="dk"/><feComposite in="SourceGraphic"/></filter><filter id="dm" x="33" y="325" width="129" height="31" filterUnits="userSpaceOnUse"><feOffset dy="3" input="SourceAlpha"/><feGaussianBlur stdDeviation="3" result="dn"/><feFlood flood-opacity="0.161"/><feComposite operator="in" in2="dn"/><feComposite in="SourceGraphic"/></filter><filter id="dp" x="33" y="369" width="113" height="32" filterUnits="userSpaceOnUse"><feOffset dy="3" input="SourceAlpha"/><feGaussianBlur stdDeviation="3" result="dq"/><feFlood flood-opacity="0.161"/><feComposite operator="in" in2="dq"/><feComposite in="SourceGraphic"/></filter><filter id="ds" x="33" y="103" width="64" height="31" filterUnits="userSpaceOnUse"><feOffset dy="3" input="SourceAlpha"/><feGaussianBlur stdDeviation="3" result="dt"/><feFlood flood-opacity="0.161"/><feComposite operator="in" in2="dt"/><feComposite in="SourceGraphic"/></filter><clipPath id="du"><rect width="40" height="47" fill="none"/></clipPath><filter id="dv" x="26" y="43" width="40" height="22" filterUnits="userSpaceOnUse"><feOffset dy="3" input="SourceAlpha"/><feGaussianBlur stdDeviation="3" result="dw"/><feFlood flood-opacity="0.161"/><feComposite operator="in" in2="dw"/><feComposite in="SourceGraphic"/></filter><filter id="dx" x="26" y="51" width="40" height="22" filterUnits="userSpaceOnUse"><feOffset dy="3" input="SourceAlpha"/><feGaussianBlur stdDeviation="3" result="dy"/><feFlood flood-opacity="0.161"/><feComposite operator="in" in2="dy"/><feComposite in="SourceGraphic"/></filter><filter id="dz" x="26" y="59" width="40" height="22" filterUnits="userSpaceOnUse"><feOffset dy="3" input="SourceAlpha"/><feGaussianBlur stdDeviation="3" result="ea"/><feFlood flood-opacity="0.161"/><feComposite operator="in" in2="ea"/><feComposite in="SourceGraphic"/></filter><filter id="ec" x="32" y="428" width="85" height="32" filterUnits="userSpaceOnUse"><feOffset dy="3" input="SourceAlpha"/><feGaussianBlur stdDeviation="3" result="ed"/><feFlood flood-opacity="0.161"/><feComposite operator="in" in2="ed"/><feComposite in="SourceGraphic"/></filter><linearGradient id="ee" x1="0.204" y1="-0.304" x2="0.862" y2="1.225" gradientUnits="objectBoundingBox"><stop offset="0" stop-color="#e63700"/><stop offset="0.385" stop-color="#e63700"/><stop offset="0.51" stop-color="#fcb9a3"/><stop offset="0.619" stop-color="#e63700"/><stop offset="1" stop-color="#e63700"/></linearGradient><filter id="ef" x="32" y="461" width="106" height="32" filterUnits="userSpaceOnUse"><feOffset dy="3" input="SourceAlpha"/><feGaussianBlur stdDeviation="3" result="eg"/><feFlood flood-opacity="0.161"/><feComposite operator="in" in2="eg"/><feComposite in="SourceGraphic"/></filter></defs><g transform="translate(-1169 -273)"><g transform="translate(22 131)"><g transform="translate(930.661 -469.372)"><rect width="416.692" height="584.905" rx="5.747" transform="translate(228.339 611.373)" fill="url(#a)"/><rect width="385.879" height="471.802" transform="translate(243.746 650.425)" fill="url(#b)"/><path d="M330.291,760.562A7.431,7.431,0,0,1,322.846,768H284.059a7.433,7.433,0,0,1-7.433-7.433h0a7.434,7.434,0,0,1,7.433-7.433h38.786a7.431,7.431,0,0,1,7.445,7.433Z" transform="translate(133.228 400.129)" fill="url(#c)" style="mix-blend-mode:multiply;isolation:isolate"/><path d="M584.436,611.372H245.784l343.464,549.375c10.016-2.093,17.508-10.557,17.508-20.708V632.585C606.755,620.866,596.767,611.372,584.436,611.372Z" transform="translate(38.275 0)" fill="url(#d)" style="mix-blend-mode:screen;isolation:isolate"/><rect width="386" height="415" transform="translate(243.339 707.372)" fill="#121113"/></g><g transform="translate(708 80)"><g transform="matrix(1, 0, 0, 1, 439, 62)" filter="url(#e)"><g transform="translate(36 44)" fill="rgba(255,255,255,0)" stroke="#fff" stroke-width="1"><rect width="369" height="47" rx="2" stroke="none"/><rect x="0.5" y="0.5" width="368" height="46" rx="1.5" fill="none"/></g></g><g transform="translate(64 -137)"><g transform="matrix(1, 0, 0, 1, 375, 199)" filter="url(#g)"><rect width="387" height="57" transform="translate(27 39)" fill="#121113"/></g><g transform="translate(730.612 247.5)"><rect width="38.404" height="38.404" fill="none"/><path d="M315.173,68.929h-1.3l-.489-.489a10.2,10.2,0,0,0,2.608-6.845,10.594,10.594,0,1,0-10.594,10.594,10.2,10.2,0,0,0,6.845-2.608l.489.489v1.3l8.149,8.149,2.445-2.445Zm-9.779,0a7.334,7.334,0,1,1,7.334-7.334A7.3,7.3,0,0,1,305.394,68.929Z" transform="translate(-290.239 -46.439)" fill="#fff"/></g><g transform="matrix(1, 0, 0, 1, 375, 199)" filter="url(#i)"><g transform="translate(49 53)" fill="rgba(255,255,255,0.21)" stroke="#e5e5e5" stroke-width="1"><rect width="288" height="28" rx="2" stroke="none"/><rect x="0.5" y="0.5" width="287" height="27" rx="1.5" fill="none"/></g></g></g></g><g transform="translate(1189.174 250.842)" clip-path="url(#k)"><g transform="translate(-1099.174 -206.842)"><g transform="translate(1104.174 210.842)"><g transform="matrix(1, 0, 0, 1, -47.17, -112.84)" filter="url(#l)"><path d="M116.418,184.845c-.251,0-.418-.2-.418-.5V34.656a.829.829,0,0,1,.837-.856H259.1a.861.861,0,0,1,.837.856V184.392c0,.3-.167.5-.418.5h-143.1Z" transform="translate(-68.83 79.04)" fill="#bebebe" stroke="#fff" stroke-width="1"/></g><path d="M259.1,273.644H116.837c-.46,0-.837-.514-.837-1.142V193.7H259.934v78.8C259.934,273.13,259.557,273.644,259.1,273.644Z" transform="translate(-116 -122.549)" fill="#fff"/></g><g transform="translate(1110.858 292.118)"><g transform="matrix(1, 0, 0, 1, -53.86, -194.12)" filter="url(#o)"><rect width="71" height="14" rx="2" transform="translate(54 194)" fill="url(#n)"/></g><g transform="matrix(1, 0, 0, 1, -53.86, -194.12)" filter="url(#q)"><rect width="124" height="7" rx="2" transform="translate(54 216)" fill="#545454"/></g><g transform="matrix(1, 0, 0, 1, -53.86, -194.12)" filter="url(#s)"><rect width="95" height="7" rx="2" transform="translate(54 227)" fill="#545454"/></g><g transform="matrix(1, 0, 0, 1, -53.86, -194.12)" filter="url(#v)"><rect width="59" height="14" rx="2" transform="translate(125 243)" fill="url(#u)"/></g><g transform="matrix(1, 0, 0, 1, -53.86, -194.12)" filter="url(#y)"><rect width="59" height="14" rx="2" transform="translate(54 243)" fill="url(#x)"/></g></g></g><g transform="translate(-909.174 -206.842)"><g transform="translate(1104.174 210.842)"><g transform="matrix(1, 0, 0, 1, -237.17, -112.84)" filter="url(#aa)"><path d="M116.418,184.845c-.251,0-.418-.2-.418-.5V34.656a.829.829,0,0,1,.837-.856H259.1a.861.861,0,0,1,.837.856V184.392c0,.3-.167.5-.418.5h-143.1Z" transform="translate(121.17 79.04)" fill="#bebebe" stroke="#fff" stroke-width="1"/></g><path d="M259.1,273.644H116.837c-.46,0-.837-.514-.837-1.142V193.7H259.934v78.8C259.934,273.13,259.557,273.644,259.1,273.644Z" transform="translate(-116 -122.549)" fill="#fff"/></g><g transform="translate(1110.858 292.118)"><g transform="matrix(1, 0, 0, 1, -243.86, -194.12)" filter="url(#ad)"><rect width="71" height="14" rx="2" transform="translate(244 194)" fill="url(#n)"/></g><g transform="matrix(1, 0, 0, 1, -243.86, -194.12)" filter="url(#af)"><rect width="124" height="7" rx="2" transform="translate(244 216)" fill="#545454"/></g><g transform="matrix(1, 0, 0, 1, -243.86, -194.12)" filter="url(#ah)"><rect width="95" height="7" rx="2" transform="translate(244 227)" fill="#545454"/></g><g transform="matrix(1, 0, 0, 1, -243.86, -194.12)" filter="url(#ak)"><rect width="59" height="14" rx="2" transform="translate(315 243)" fill="url(#u)"/></g><g transform="matrix(1, 0, 0, 1, -243.86, -194.12)" filter="url(#an)"><rect width="59" height="14" rx="2" transform="translate(244 243)" fill="url(#x)"/></g></g></g><g transform="translate(-1099.174 -24.842)"><g transform="translate(1104.174 210.842)"><g transform="matrix(1, 0, 0, 1, -47.17, -294.84)" filter="url(#ap)"><path d="M116.418,184.845c-.251,0-.418-.2-.418-.5V34.656a.829.829,0,0,1,.837-.856H259.1a.861.861,0,0,1,.837.856V184.392c0,.3-.167.5-.418.5h-143.1Z" transform="translate(-68.83 261.04)" fill="#bebebe" stroke="#fff" stroke-width="1"/></g><path d="M259.1,273.644H116.837c-.46,0-.837-.514-.837-1.142V193.7H259.934v78.8C259.934,273.13,259.557,273.644,259.1,273.644Z" transform="translate(-116 -122.549)" fill="#fff"/></g><g transform="translate(1110.858 292.118)"><g transform="matrix(1, 0, 0, 1, -53.86, -376.12)" filter="url(#as)"><rect width="71" height="14" rx="2" transform="translate(54 376)" fill="url(#n)"/></g><g transform="matrix(1, 0, 0, 1, -53.86, -376.12)" filter="url(#au)"><rect width="124" height="7" rx="2" transform="translate(54 398)" fill="#545454"/></g><g transform="matrix(1, 0, 0, 1, -53.86, -376.12)" filter="url(#aw)"><rect width="95" height="7" rx="2" transform="translate(54 409)" fill="#545454"/></g><g transform="matrix(1, 0, 0, 1, -53.86, -376.12)" filter="url(#az)"><rect width="59" height="14" rx="2" transform="translate(125 425)" fill="url(#u)"/></g><g transform="matrix(1, 0, 0, 1, -53.86, -376.12)" filter="url(#bc)"><rect width="59" height="14" rx="2" transform="translate(54 425)" fill="url(#x)"/></g></g></g><g transform="translate(-909.174 -24.842)"><g transform="translate(1104.174 210.842)"><g transform="matrix(1, 0, 0, 1, -237.17, -294.84)" filter="url(#be)"><path d="M116.418,184.845c-.251,0-.418-.2-.418-.5V34.656a.829.829,0,0,1,.837-.856H259.1a.861.861,0,0,1,.837.856V184.392c0,.3-.167.5-.418.5h-143.1Z" transform="translate(121.17 261.04)" fill="#bebebe" stroke="#fff" stroke-width="1"/></g><path d="M259.1,273.644H116.837c-.46,0-.837-.514-.837-1.142V193.7H259.934v78.8C259.934,273.13,259.557,273.644,259.1,273.644Z" transform="translate(-116 -122.549)" fill="#fff"/></g><g transform="translate(1110.858 292.118)"><g transform="matrix(1, 0, 0, 1, -243.86, -376.12)" filter="url(#bh)"><rect width="71" height="14" rx="2" transform="translate(244 376)" fill="url(#n)"/></g><g transform="matrix(1, 0, 0, 1, -243.86, -376.12)" filter="url(#bj)"><rect width="124" height="7" rx="2" transform="translate(244 398)" fill="#545454"/></g><g transform="matrix(1, 0, 0, 1, -243.86, -376.12)" filter="url(#bl)"><rect width="95" height="7" rx="2" transform="translate(244 409)" fill="#545454"/></g><g transform="matrix(1, 0, 0, 1, -243.86, -376.12)" filter="url(#bo)"><rect width="59" height="14" rx="2" transform="translate(315 425)" fill="url(#u)"/></g><g transform="matrix(1, 0, 0, 1, -243.86, -376.12)" filter="url(#br)"><rect width="59" height="14" rx="2" transform="translate(244 425)" fill="url(#x)"/></g></g></g><g transform="translate(-1099.174 157.158)"><g transform="translate(1104.174 210.842)"><g transform="matrix(1, 0, 0, 1, -47.17, -476.84)" filter="url(#bt)"><path d="M116.418,184.845c-.251,0-.418-.2-.418-.5V34.656a.829.829,0,0,1,.837-.856H259.1a.861.861,0,0,1,.837.856V184.392c0,.3-.167.5-.418.5h-143.1Z" transform="translate(-68.83 443.04)" fill="#bebebe" stroke="#fff" stroke-width="1"/></g><path d="M259.1,273.644H116.837c-.46,0-.837-.514-.837-1.142V193.7H259.934v78.8C259.934,273.13,259.557,273.644,259.1,273.644Z" transform="translate(-116 -122.549)" fill="#fff"/></g><g transform="translate(1110.858 292.118)"><g transform="matrix(1, 0, 0, 1, -53.86, -558.12)" filter="url(#bw)"><rect width="71" height="14" rx="2" transform="translate(54 558)" fill="url(#n)"/></g><g transform="matrix(1, 0, 0, 1, -53.86, -558.12)" filter="url(#by)"><rect width="124" height="7" rx="2" transform="translate(54 580)" fill="#545454"/></g><g transform="matrix(1, 0, 0, 1, -53.86, -558.12)" filter="url(#ca)"><rect width="95" height="7" rx="2" transform="translate(54 591)" fill="#545454"/></g><g transform="matrix(1, 0, 0, 1, -53.86, -558.12)" filter="url(#cd)"><rect width="59" height="14" rx="2" transform="translate(125 607)" fill="url(#u)"/></g><g transform="matrix(1, 0, 0, 1, -53.86, -558.12)" filter="url(#cg)"><rect width="59" height="14" rx="2" transform="translate(54 607)" fill="url(#x)"/></g></g></g><g transform="translate(-909.174 157.158)"><g transform="translate(1104.174 210.842)"><g transform="matrix(1, 0, 0, 1, -237.17, -476.84)" filter="url(#ci)"><path d="M116.418,184.845c-.251,0-.418-.2-.418-.5V34.656a.829.829,0,0,1,.837-.856H259.1a.861.861,0,0,1,.837.856V184.392c0,.3-.167.5-.418.5h-143.1Z" transform="translate(121.17 443.04)" fill="#bebebe" stroke="#fff" stroke-width="1"/></g><path d="M259.1,273.644H116.837c-.46,0-.837-.514-.837-1.142V193.7H259.934v78.8C259.934,273.13,259.557,273.644,259.1,273.644Z" transform="translate(-116 -122.549)" fill="#fff"/></g><g transform="translate(1110.858 292.118)"><g transform="matrix(1, 0, 0, 1, -243.86, -558.12)" filter="url(#cl)"><rect width="71" height="14" rx="2" transform="translate(244 558)" fill="url(#n)"/></g><g transform="matrix(1, 0, 0, 1, -243.86, -558.12)" filter="url(#cn)"><rect width="124" height="7" rx="2" transform="translate(244 580)" fill="#545454"/></g><g transform="matrix(1, 0, 0, 1, -243.86, -558.12)" filter="url(#cp)"><rect width="95" height="7" rx="2" transform="translate(244 591)" fill="#545454"/></g><g transform="matrix(1, 0, 0, 1, -243.86, -558.12)" filter="url(#cs)"><rect width="59" height="14" rx="2" transform="translate(315 607)" fill="url(#u)"/></g><g transform="matrix(1, 0, 0, 1, -243.86, -558.12)" filter="url(#cv)"><rect width="59" height="14" rx="2" transform="translate(244 607)" fill="url(#x)"/></g></g></g></g><g transform="matrix(1, 0, 0, 1, 1147, 142)" filter="url(#cx)"><rect width="165" height="472" transform="translate(27 39)" fill="#e0ebf8"/></g><g transform="translate(1174 181)"><rect width="165" height="39" fill="#1b222b"/></g><g transform="matrix(1, 0, 0, 1, 1147, 142)" filter="url(#da)"><rect width="118" height="14" rx="2" transform="translate(42 150)" fill="url(#cz)"/></g><g transform="matrix(1, 0, 0, 1, 1147, 142)" filter="url(#dd)"><rect width="66" height="14" rx="2" transform="translate(42 197)" fill="url(#cz)"/></g><g transform="matrix(1, 0, 0, 1, 1147, 142)" filter="url(#dg)"><rect width="55" height="15" rx="2" transform="translate(42 243)" fill="url(#cz)"/></g><g transform="matrix(1, 0, 0, 1, 1147, 142)" filter="url(#dj)"><rect width="118" height="13" rx="2" transform="translate(42 287)" fill="url(#cz)"/></g><g transform="matrix(1, 0, 0, 1, 1147, 142)" filter="url(#dm)"><rect width="111" height="13" rx="2" transform="translate(42 331)" fill="url(#cz)"/></g><g transform="matrix(1, 0, 0, 1, 1147, 142)" filter="url(#dp)"><rect width="95" height="14" rx="2" transform="translate(42 375)" fill="url(#cz)"/></g><g transform="matrix(1, 0, 0, 1, 1147, 142)" filter="url(#ds)"><rect width="46" height="13" rx="2" transform="translate(42 109)" fill="url(#x)"/></g><g transform="translate(1173 185)" clip-path="url(#du)"><g transform="translate(-1174 -181)"><g transform="matrix(1, 0, 0, 1, 1148, 138)" filter="url(#dv)"><rect width="22" height="4" rx="2" transform="translate(35 49)" fill="#e0ebf8"/></g></g><g transform="translate(-1174 -173)"><g transform="matrix(1, 0, 0, 1, 1148, 130)" filter="url(#dx)"><rect width="22" height="4" rx="2" transform="translate(35 57)" fill="#e0ebf8"/></g></g><g transform="translate(-1174 -165)"><g transform="matrix(1, 0, 0, 1, 1148, 122)" filter="url(#dz)"><rect width="22" height="4" rx="2" transform="translate(35 65)" fill="#e0ebf8"/></g></g></g><g transform="matrix(1, 0, 0, 1, 1147, 142)" filter="url(#ec)"><rect width="67" height="14" rx="2" transform="translate(41 434)" fill="url(#x)"/></g><g transform="matrix(1, 0, 0, 1, 1147, 142)" filter="url(#ef)"><rect width="88" height="14" rx="2" transform="translate(41 467)" fill="url(#ee)"/></g></g></g></svg>