<svg xmlns="http://www.w3.org/2000/svg" xmlns:xlink="http://www.w3.org/1999/xlink" width="338.393" height="584.906" viewBox="0 0 338.393 584.906"><defs><linearGradient id="a" x1="-0.385" y1="0.844" x2="0.946" y2="0.327" gradientUnits="objectBoundingBox"><stop offset="0" stop-color="#333"/><stop offset="0.067" stop-color="#2f2f2f"/><stop offset="0.13" stop-color="#242424"/><stop offset="0.19" stop-color="#111"/><stop offset="0.231"/><stop offset="0.243" stop-color="#010101"/><stop offset="1" stop-color="#444"/></linearGradient><linearGradient id="b" x1="-0.026" y1="0.958" x2="1.267" y2="-0.168" gradientUnits="objectBoundingBox"><stop offset="0.027" stop-color="#e8e8e9"/><stop offset="0.887" stop-color="#fff"/></linearGradient><linearGradient id="c" x1="0.695" y1="-1.108" x2="0.276" y2="2.349" gradientUnits="objectBoundingBox"><stop offset="0.231"/><stop offset="1" stop-color="#1c1c1c"/></linearGradient><linearGradient id="d" x1="1.571" y1="0.231" x2="0.007" y2="0.624" gradientUnits="objectBoundingBox"><stop offset="0"/><stop offset="0.291" stop-color="#020202"/><stop offset="0.428" stop-color="#090909"/><stop offset="0.534" stop-color="#161616"/><stop offset="0.623" stop-color="#282828"/><stop offset="0.702" stop-color="#404040"/><stop offset="0.773" stop-color="#5e5e5e"/><stop offset="0.839" stop-color="#818181"/><stop offset="0.901" stop-color="#aaa"/><stop offset="0.957" stop-color="#d6d6d6"/><stop offset="1" stop-color="#fff"/></linearGradient><filter id="e" x="17" y="39" width="319" height="75" filterUnits="userSpaceOnUse"><feOffset dy="3" input="SourceAlpha"/><feGaussianBlur stdDeviation="3" result="f"/><feFlood flood-opacity="0.161"/><feComposite operator="in" in2="f"/><feComposite in="SourceGraphic"/></filter><clipPath id="g"><rect width="277.99" height="443.158" fill="none"/></clipPath><filter id="h" x="39.174" y="109.842" width="277.99" height="68.045" filterUnits="userSpaceOnUse"><feOffset dy="1" input="SourceAlpha"/><feGaussianBlur stdDeviation="1.5" result="i"/><feFlood flood-opacity="0.4"/><feComposite operator="in" in2="i"/><feComposite in="SourceGraphic"/></filter><linearGradient id="j" x1="0.426" x2="0.555" y2="1" gradientUnits="objectBoundingBox"><stop offset="0" stop-color="#545454"/><stop offset="0.481" stop-color="#686868"/><stop offset="1" stop-color="#545454"/></linearGradient><filter id="k" x="137" y="113" width="104" height="28" filterUnits="userSpaceOnUse"><feOffset dy="1" input="SourceAlpha"/><feGaussianBlur stdDeviation="3" result="l"/><feFlood flood-opacity="0.161"/><feComposite operator="in" in2="l"/><feComposite in="SourceGraphic"/></filter><filter id="m" x="137" y="129" width="168" height="23" filterUnits="userSpaceOnUse"><feOffset dy="1" input="SourceAlpha"/><feGaussianBlur stdDeviation="3" result="n"/><feFlood flood-opacity="0.161"/><feComposite operator="in" in2="n"/><feComposite in="SourceGraphic"/></filter><filter id="o" x="137" y="137" width="133" height="23" filterUnits="userSpaceOnUse"><feOffset dy="1" input="SourceAlpha"/><feGaussianBlur stdDeviation="3" result="p"/><feFlood flood-opacity="0.161"/><feComposite operator="in" in2="p"/><feComposite in="SourceGraphic"/></filter><linearGradient id="q" x1="0.204" y1="-0.304" x2="0.862" y2="1.225" gradientUnits="objectBoundingBox"><stop offset="0" stop-color="#42f4b1"/><stop offset="0.385" stop-color="#42f4b1"/><stop offset="0.51" stop-color="#bbf8e1"/><stop offset="0.619" stop-color="#42f4b1"/><stop offset="1" stop-color="#42f4b1"/></linearGradient><filter id="r" x="223" y="151" width="89" height="28" filterUnits="userSpaceOnUse"><feOffset dy="3" input="SourceAlpha"/><feGaussianBlur stdDeviation="3" result="s"/><feFlood flood-opacity="0.161"/><feComposite operator="in" in2="s"/><feComposite in="SourceGraphic"/></filter><linearGradient id="t" x1="0.204" y1="-0.304" x2="0.862" y2="1.225" gradientUnits="objectBoundingBox"><stop offset="0" stop-color="#4285f4"/><stop offset="0.385" stop-color="#84aced"/><stop offset="0.51" stop-color="#a3bee9"/><stop offset="0.619" stop-color="#89afec"/><stop offset="1" stop-color="#4285f4"/></linearGradient><filter id="u" x="137" y="151" width="90" height="28" filterUnits="userSpaceOnUse"><feOffset dy="3" input="SourceAlpha"/><feGaussianBlur stdDeviation="3" result="v"/><feFlood flood-opacity="0.161"/><feComposite operator="in" in2="v"/><feComposite in="SourceGraphic"/></filter><filter id="w" x="39.174" y="199.842" width="277.99" height="68.045" filterUnits="userSpaceOnUse"><feOffset dy="1" input="SourceAlpha"/><feGaussianBlur stdDeviation="1.5" result="x"/><feFlood flood-opacity="0.4"/><feComposite operator="in" in2="x"/><feComposite in="SourceGraphic"/></filter><filter id="z" x="137" y="203" width="104" height="28" filterUnits="userSpaceOnUse"><feOffset dy="1" input="SourceAlpha"/><feGaussianBlur stdDeviation="3" result="aa"/><feFlood flood-opacity="0.161"/><feComposite operator="in" in2="aa"/><feComposite in="SourceGraphic"/></filter><filter id="ab" x="137" y="219" width="168" height="23" filterUnits="userSpaceOnUse"><feOffset dy="1" input="SourceAlpha"/><feGaussianBlur stdDeviation="3" result="ac"/><feFlood flood-opacity="0.161"/><feComposite operator="in" in2="ac"/><feComposite in="SourceGraphic"/></filter><filter id="ad" x="137" y="227" width="133" height="23" filterUnits="userSpaceOnUse"><feOffset dy="1" input="SourceAlpha"/><feGaussianBlur stdDeviation="3" result="ae"/><feFlood flood-opacity="0.161"/><feComposite operator="in" in2="ae"/><feComposite in="SourceGraphic"/></filter><filter id="ag" x="223" y="241" width="89" height="28" filterUnits="userSpaceOnUse"><feOffset dy="3" input="SourceAlpha"/><feGaussianBlur stdDeviation="3" result="ah"/><feFlood flood-opacity="0.161"/><feComposite operator="in" in2="ah"/><feComposite in="SourceGraphic"/></filter><filter id="aj" x="137" y="241" width="90" height="28" filterUnits="userSpaceOnUse"><feOffset dy="3" input="SourceAlpha"/><feGaussianBlur stdDeviation="3" result="ak"/><feFlood flood-opacity="0.161"/><feComposite operator="in" in2="ak"/><feComposite in="SourceGraphic"/></filter><filter id="al" x="39.174" y="289.842" width="277.99" height="68.045" filterUnits="userSpaceOnUse"><feOffset dy="1" input="SourceAlpha"/><feGaussianBlur stdDeviation="1.5" result="am"/><feFlood flood-opacity="0.4"/><feComposite operator="in" in2="am"/><feComposite in="SourceGraphic"/></filter><filter id="ao" x="137" y="293" width="104" height="28" filterUnits="userSpaceOnUse"><feOffset dy="1" input="SourceAlpha"/><feGaussianBlur stdDeviation="3" result="ap"/><feFlood flood-opacity="0.161"/><feComposite operator="in" in2="ap"/><feComposite in="SourceGraphic"/></filter><filter id="aq" x="137" y="309" width="168" height="23" filterUnits="userSpaceOnUse"><feOffset dy="1" input="SourceAlpha"/><feGaussianBlur stdDeviation="3" result="ar"/><feFlood flood-opacity="0.161"/><feComposite operator="in" in2="ar"/><feComposite in="SourceGraphic"/></filter><filter id="as" x="137" y="317" width="133" height="23" filterUnits="userSpaceOnUse"><feOffset dy="1" input="SourceAlpha"/><feGaussianBlur stdDeviation="3" result="at"/><feFlood flood-opacity="0.161"/><feComposite operator="in" in2="at"/><feComposite in="SourceGraphic"/></filter><filter id="av" x="223" y="331" width="89" height="28" filterUnits="userSpaceOnUse"><feOffset dy="3" input="SourceAlpha"/><feGaussianBlur stdDeviation="3" result="aw"/><feFlood flood-opacity="0.161"/><feComposite operator="in" in2="aw"/><feComposite in="SourceGraphic"/></filter><filter id="ay" x="137" y="331" width="90" height="28" filterUnits="userSpaceOnUse"><feOffset dy="3" input="SourceAlpha"/><feGaussianBlur stdDeviation="3" result="az"/><feFlood flood-opacity="0.161"/><feComposite operator="in" in2="az"/><feComposite in="SourceGraphic"/></filter><filter id="ba" x="39.174" y="379.842" width="277.99" height="68.045" filterUnits="userSpaceOnUse"><feOffset dy="1" input="SourceAlpha"/><feGaussianBlur stdDeviation="1.5" result="bb"/><feFlood flood-opacity="0.4"/><feComposite operator="in" in2="bb"/><feComposite in="SourceGraphic"/></filter><filter id="bd" x="137" y="383" width="104" height="28" filterUnits="userSpaceOnUse"><feOffset dy="1" input="SourceAlpha"/><feGaussianBlur stdDeviation="3" result="be"/><feFlood flood-opacity="0.161"/><feComposite operator="in" in2="be"/><feComposite in="SourceGraphic"/></filter><filter id="bf" x="137" y="399" width="168" height="23" filterUnits="userSpaceOnUse"><feOffset dy="1" input="SourceAlpha"/><feGaussianBlur stdDeviation="3" result="bg"/><feFlood flood-opacity="0.161"/><feComposite operator="in" in2="bg"/><feComposite in="SourceGraphic"/></filter><filter id="bh" x="137" y="407" width="133" height="23" filterUnits="userSpaceOnUse"><feOffset dy="1" input="SourceAlpha"/><feGaussianBlur stdDeviation="3" result="bi"/><feFlood flood-opacity="0.161"/><feComposite operator="in" in2="bi"/><feComposite in="SourceGraphic"/></filter><filter id="bk" x="223" y="421" width="89" height="28" filterUnits="userSpaceOnUse"><feOffset dy="3" input="SourceAlpha"/><feGaussianBlur stdDeviation="3" result="bl"/><feFlood flood-opacity="0.161"/><feComposite operator="in" in2="bl"/><feComposite in="SourceGraphic"/></filter><filter id="bn" x="137" y="421" width="90" height="28" filterUnits="userSpaceOnUse"><feOffset dy="3" input="SourceAlpha"/><feGaussianBlur stdDeviation="3" result="bo"/><feFlood flood-opacity="0.161"/><feComposite operator="in" in2="bo"/><feComposite in="SourceGraphic"/></filter><filter id="bp" x="39.174" y="469.842" width="277.99" height="68.045" filterUnits="userSpaceOnUse"><feOffset dy="1" input="SourceAlpha"/><feGaussianBlur stdDeviation="1.5" result="bq"/><feFlood flood-opacity="0.4"/><feComposite operator="in" in2="bq"/><feComposite in="SourceGraphic"/></filter><filter id="bs" x="137" y="473" width="104" height="28" filterUnits="userSpaceOnUse"><feOffset dy="1" input="SourceAlpha"/><feGaussianBlur stdDeviation="3" result="bt"/><feFlood flood-opacity="0.161"/><feComposite operator="in" in2="bt"/><feComposite in="SourceGraphic"/></filter><filter id="bu" x="137" y="489" width="168" height="23" filterUnits="userSpaceOnUse"><feOffset dy="1" input="SourceAlpha"/><feGaussianBlur stdDeviation="3" result="bv"/><feFlood flood-opacity="0.161"/><feComposite operator="in" in2="bv"/><feComposite in="SourceGraphic"/></filter><filter id="bw" x="137" y="497" width="133" height="23" filterUnits="userSpaceOnUse"><feOffset dy="1" input="SourceAlpha"/><feGaussianBlur stdDeviation="3" result="bx"/><feFlood flood-opacity="0.161"/><feComposite operator="in" in2="bx"/><feComposite in="SourceGraphic"/></filter><filter id="bz" x="223" y="511" width="89" height="28" filterUnits="userSpaceOnUse"><feOffset dy="3" input="SourceAlpha"/><feGaussianBlur stdDeviation="3" result="ca"/><feFlood flood-opacity="0.161"/><feComposite operator="in" in2="ca"/><feComposite in="SourceGraphic"/></filter><filter id="cc" x="137" y="511" width="90" height="28" filterUnits="userSpaceOnUse"><feOffset dy="3" input="SourceAlpha"/><feGaussianBlur stdDeviation="3" result="cd"/><feFlood flood-opacity="0.161"/><feComposite operator="in" in2="cd"/><feComposite in="SourceGraphic"/></filter><filter id="ce" x="0" y="27" width="251" height="552" filterUnits="userSpaceOnUse"><feOffset dy="9" input="SourceAlpha"/><feGaussianBlur stdDeviation="9" result="cf"/><feFlood flood-opacity="0.18"/><feComposite operator="in" in2="cf"/><feComposite in="SourceGraphic"/></filter><linearGradient id="cg" x1="0.198" y1="-0.555" x2="0.845" y2="1.572" gradientUnits="objectBoundingBox"><stop offset="0" stop-color="#737373"/><stop offset="0.319" stop-color="gray"/><stop offset="0.502" stop-color="#989898"/><stop offset="0.66" stop-color="#727272"/><stop offset="1" stop-color="#737373"/></linearGradient><filter id="ch" x="33" y="157" width="165" height="32" filterUnits="userSpaceOnUse"><feOffset dy="3" input="SourceAlpha"/><feGaussianBlur stdDeviation="3" result="ci"/><feFlood flood-opacity="0.161"/><feComposite operator="in" in2="ci"/><feComposite in="SourceGraphic"/></filter><filter id="ck" x="33" y="207" width="100" height="32" filterUnits="userSpaceOnUse"><feOffset dy="3" input="SourceAlpha"/><feGaussianBlur stdDeviation="3" result="cl"/><feFlood flood-opacity="0.161"/><feComposite operator="in" in2="cl"/><feComposite in="SourceGraphic"/></filter><filter id="cn" x="33" y="256" width="87" height="33" filterUnits="userSpaceOnUse"><feOffset dy="3" input="SourceAlpha"/><feGaussianBlur stdDeviation="3" result="co"/><feFlood flood-opacity="0.161"/><feComposite operator="in" in2="co"/><feComposite in="SourceGraphic"/></filter><filter id="cq" x="33" y="302" width="165" height="31" filterUnits="userSpaceOnUse"><feOffset dy="3" input="SourceAlpha"/><feGaussianBlur stdDeviation="3" result="cr"/><feFlood flood-opacity="0.161"/><feComposite operator="in" in2="cr"/><feComposite in="SourceGraphic"/></filter><filter id="ct" x="33" y="349" width="156" height="31" filterUnits="userSpaceOnUse"><feOffset dy="3" input="SourceAlpha"/><feGaussianBlur stdDeviation="3" result="cu"/><feFlood flood-opacity="0.161"/><feComposite operator="in" in2="cu"/><feComposite in="SourceGraphic"/></filter><filter id="cw" x="33" y="396" width="136" height="32" filterUnits="userSpaceOnUse"><feOffset dy="3" input="SourceAlpha"/><feGaussianBlur stdDeviation="3" result="cx"/><feFlood flood-opacity="0.161"/><feComposite operator="in" in2="cx"/><feComposite in="SourceGraphic"/></filter><filter id="cz" x="33" y="109" width="75" height="31" filterUnits="userSpaceOnUse"><feOffset dy="3" input="SourceAlpha"/><feGaussianBlur stdDeviation="3" result="da"/><feFlood flood-opacity="0.161"/><feComposite operator="in" in2="da"/><feComposite in="SourceGraphic"/></filter><clipPath id="db"><rect width="40" height="29" fill="none"/></clipPath><filter id="dc" x="26" y="49" width="40" height="22" filterUnits="userSpaceOnUse"><feOffset dy="3" input="SourceAlpha"/><feGaussianBlur stdDeviation="3" result="dd"/><feFlood flood-opacity="0.161"/><feComposite operator="in" in2="dd"/><feComposite in="SourceGraphic"/></filter><filter id="de" x="26" y="57" width="40" height="22" filterUnits="userSpaceOnUse"><feOffset dy="3" input="SourceAlpha"/><feGaussianBlur stdDeviation="3" result="df"/><feFlood flood-opacity="0.161"/><feComposite operator="in" in2="df"/><feComposite in="SourceGraphic"/></filter><filter id="dg" x="26" y="65" width="40" height="22" filterUnits="userSpaceOnUse"><feOffset dy="3" input="SourceAlpha"/><feGaussianBlur stdDeviation="3" result="dh"/><feFlood flood-opacity="0.161"/><feComposite operator="in" in2="dh"/><feComposite in="SourceGraphic"/></filter><filter id="di" x="26" y="73" width="40" height="22" filterUnits="userSpaceOnUse"><feOffset dy="3" input="SourceAlpha"/><feGaussianBlur stdDeviation="3" result="dj"/><feFlood flood-opacity="0.161"/><feComposite operator="in" in2="dj"/><feComposite in="SourceGraphic"/></filter><filter id="dl" x="32" y="460" width="101" height="32" filterUnits="userSpaceOnUse"><feOffset dy="3" input="SourceAlpha"/><feGaussianBlur stdDeviation="3" result="dm"/><feFlood flood-opacity="0.161"/><feComposite operator="in" in2="dm"/><feComposite in="SourceGraphic"/></filter><linearGradient id="dn" x1="0.204" y1="-0.304" x2="0.862" y2="1.225" gradientUnits="objectBoundingBox"><stop offset="0" stop-color="#e63700"/><stop offset="0.385" stop-color="#e63700"/><stop offset="0.51" stop-color="#fcb9a3"/><stop offset="0.619" stop-color="#e63700"/><stop offset="1" stop-color="#e63700"/></linearGradient><filter id="do" x="32" y="493" width="127" height="32" filterUnits="userSpaceOnUse"><feOffset dy="3" input="SourceAlpha"/><feGaussianBlur stdDeviation="3" result="dp"/><feFlood flood-opacity="0.161"/><feComposite operator="in" in2="dp"/><feComposite in="SourceGraphic"/></filter></defs><g transform="translate(-1319 -183)"><g transform="translate(1081.095 -693.916)"><path d="M3.143,0h317.11a3.14,3.14,0,0,1,3.14,3.14V581.763a3.143,3.143,0,0,1-3.143,3.143H3.143A3.143,3.143,0,0,1,0,581.763V3.143A3.143,3.143,0,0,1,3.143,0Z" transform="translate(252.905 876.916)" fill="url(#a)"/><rect width="300.148" height="494.616" transform="translate(264.52 922.061)" fill="url(#b)"/><path d="M331.978,988.054a7.458,7.458,0,0,1-7.472,7.456h-39a7.458,7.458,0,0,1-7.472-7.456h0a7.482,7.482,0,0,1,7.472-7.488h39a7.482,7.482,0,0,1,7.472,7.488Z" transform="translate(109.587 451.941)" fill="url(#c)" style="mix-blend-mode:multiply;isolation:isolate"/><path d="M506.422,876.916H265.066l258.2,434.524V893.763A16.846,16.846,0,0,0,506.422,876.916Z" transform="translate(53.026 0)" fill="url(#d)" style="mix-blend-mode:screen;isolation:isolate"/></g><rect width="300" height="441" transform="translate(1346 285)" fill="#121113"/><g transform="matrix(1, 0, 0, 1, 1319, 183)" filter="url(#e)"><g transform="translate(26 45)" fill="#121113" stroke="#a8a7a7" stroke-width="1"><rect width="301" height="57" stroke="none"/><rect x="0.5" y="0.5" width="300" height="56" fill="none"/></g></g><g transform="translate(1592.76 237.5)"><rect width="38.404" height="38.404" fill="none"/><path d="M315.173,68.929h-1.3l-.489-.489a10.2,10.2,0,0,0,2.608-6.845,10.594,10.594,0,1,0-10.594,10.594,10.2,10.2,0,0,0,6.845-2.608l.489.489v1.3l8.149,8.149,2.445-2.445Zm-9.779,0a7.334,7.334,0,1,1,7.334-7.334A7.3,7.3,0,0,1,305.394,68.929Z" transform="translate(-290.239 -46.439)" fill="#fff"/></g><g transform="translate(1358.174 292.842)" clip-path="url(#g)"><g transform="translate(-1099.174 -206.842)"><g transform="translate(1104.174 210.842)"><g transform="matrix(1, 0, 0, 1, -44.17, -113.84)" filter="url(#h)"><path d="M116.779,91.826c-.467,0-.779-.077-.779-.193v-57.5c0-.193.7-.329,1.558-.329H382.432c.857,0,1.558.155,1.558.329V91.651c0,.116-.311.193-.779.193H116.779Z" transform="translate(-71.83 80.04)" fill="#bebebe" stroke="#fff" stroke-width="1"/></g><g transform="translate(94 -71)"><path d="M288.71,251.594H117.01a.935.935,0,0,1-1.01-.827V193.7H289.72v57.067A.935.935,0,0,1,288.71,251.594Z" transform="translate(-116 -122.549)" fill="#fff"/><g transform="translate(8.314 78.158)"><g transform="matrix(1, 0, 0, 1, -146.49, -121)" filter="url(#k)"><rect width="86" height="10" rx="2" transform="translate(146 121)" fill="url(#j)"/></g><g transform="matrix(1, 0, 0, 1, -146.49, -121)" filter="url(#m)"><rect width="150" height="5" rx="2" transform="translate(146 137)" fill="#545454"/></g><g transform="matrix(1, 0, 0, 1, -146.49, -121)" filter="url(#o)"><rect width="115" height="5" rx="2" transform="translate(146 145)" fill="#545454"/></g><g transform="matrix(1, 0, 0, 1, -146.49, -121)" filter="url(#r)"><rect width="71" height="10" rx="2" transform="translate(232 157)" fill="url(#q)"/></g><g transform="matrix(1, 0, 0, 1, -146.49, -121)" filter="url(#u)"><rect width="72" height="10" rx="2" transform="translate(146 157)" fill="url(#t)"/></g></g></g></g></g><g transform="translate(-1099.174 -116.842)"><g transform="translate(1104.174 210.842)"><g transform="matrix(1, 0, 0, 1, -44.17, -203.84)" filter="url(#w)"><path d="M116.779,91.826c-.467,0-.779-.077-.779-.193v-57.5c0-.193.7-.329,1.558-.329H382.432c.857,0,1.558.155,1.558.329V91.651c0,.116-.311.193-.779.193H116.779Z" transform="translate(-71.83 170.04)" fill="#bebebe" stroke="#fff" stroke-width="1"/></g><g transform="translate(94 -71)"><path d="M288.71,251.594H117.01a.935.935,0,0,1-1.01-.827V193.7H289.72v57.067A.935.935,0,0,1,288.71,251.594Z" transform="translate(-116 -122.549)" fill="#fff"/><g transform="translate(8.314 78.158)"><g transform="matrix(1, 0, 0, 1, -146.49, -211)" filter="url(#z)"><rect width="86" height="10" rx="2" transform="translate(146 211)" fill="url(#j)"/></g><g transform="matrix(1, 0, 0, 1, -146.49, -211)" filter="url(#ab)"><rect width="150" height="5" rx="2" transform="translate(146 227)" fill="#545454"/></g><g transform="matrix(1, 0, 0, 1, -146.49, -211)" filter="url(#ad)"><rect width="115" height="5" rx="2" transform="translate(146 235)" fill="#545454"/></g><g transform="matrix(1, 0, 0, 1, -146.49, -211)" filter="url(#ag)"><rect width="71" height="10" rx="2" transform="translate(232 247)" fill="url(#q)"/></g><g transform="matrix(1, 0, 0, 1, -146.49, -211)" filter="url(#aj)"><rect width="72" height="10" rx="2" transform="translate(146 247)" fill="url(#t)"/></g></g></g></g></g><g transform="translate(-1099.174 -26.842)"><g transform="translate(1104.174 210.842)"><g transform="matrix(1, 0, 0, 1, -44.17, -293.84)" filter="url(#al)"><path d="M116.779,91.826c-.467,0-.779-.077-.779-.193v-57.5c0-.193.7-.329,1.558-.329H382.432c.857,0,1.558.155,1.558.329V91.651c0,.116-.311.193-.779.193H116.779Z" transform="translate(-71.83 260.04)" fill="#bebebe" stroke="#fff" stroke-width="1"/></g><g transform="translate(94 -71)"><path d="M288.71,251.594H117.01a.935.935,0,0,1-1.01-.827V193.7H289.72v57.067A.935.935,0,0,1,288.71,251.594Z" transform="translate(-116 -122.549)" fill="#fff"/><g transform="translate(8.314 78.158)"><g transform="matrix(1, 0, 0, 1, -146.49, -301)" filter="url(#ao)"><rect width="86" height="10" rx="2" transform="translate(146 301)" fill="url(#j)"/></g><g transform="matrix(1, 0, 0, 1, -146.49, -301)" filter="url(#aq)"><rect width="150" height="5" rx="2" transform="translate(146 317)" fill="#545454"/></g><g transform="matrix(1, 0, 0, 1, -146.49, -301)" filter="url(#as)"><rect width="115" height="5" rx="2" transform="translate(146 325)" fill="#545454"/></g><g transform="matrix(1, 0, 0, 1, -146.49, -301)" filter="url(#av)"><rect width="71" height="10" rx="2" transform="translate(232 337)" fill="url(#q)"/></g><g transform="matrix(1, 0, 0, 1, -146.49, -301)" filter="url(#ay)"><rect width="72" height="10" rx="2" transform="translate(146 337)" fill="url(#t)"/></g></g></g></g></g><g transform="translate(-1099.174 63.158)"><g transform="translate(1104.174 210.842)"><g transform="matrix(1, 0, 0, 1, -44.17, -383.84)" filter="url(#ba)"><path d="M116.779,91.826c-.467,0-.779-.077-.779-.193v-57.5c0-.193.7-.329,1.558-.329H382.432c.857,0,1.558.155,1.558.329V91.651c0,.116-.311.193-.779.193H116.779Z" transform="translate(-71.83 350.04)" fill="#bebebe" stroke="#fff" stroke-width="1"/></g><g transform="translate(94 -71)"><path d="M288.71,251.594H117.01a.935.935,0,0,1-1.01-.827V193.7H289.72v57.067A.935.935,0,0,1,288.71,251.594Z" transform="translate(-116 -122.549)" fill="#fff"/><g transform="translate(8.314 78.158)"><g transform="matrix(1, 0, 0, 1, -146.49, -391)" filter="url(#bd)"><rect width="86" height="10" rx="2" transform="translate(146 391)" fill="url(#j)"/></g><g transform="matrix(1, 0, 0, 1, -146.49, -391)" filter="url(#bf)"><rect width="150" height="5" rx="2" transform="translate(146 407)" fill="#545454"/></g><g transform="matrix(1, 0, 0, 1, -146.49, -391)" filter="url(#bh)"><rect width="115" height="5" rx="2" transform="translate(146 415)" fill="#545454"/></g><g transform="matrix(1, 0, 0, 1, -146.49, -391)" filter="url(#bk)"><rect width="71" height="10" rx="2" transform="translate(232 427)" fill="url(#q)"/></g><g transform="matrix(1, 0, 0, 1, -146.49, -391)" filter="url(#bn)"><rect width="72" height="10" rx="2" transform="translate(146 427)" fill="url(#t)"/></g></g></g></g></g><g transform="translate(-1099.174 153.158)"><g transform="translate(1104.174 210.842)"><g transform="matrix(1, 0, 0, 1, -44.17, -473.84)" filter="url(#bp)"><path d="M116.779,91.826c-.467,0-.779-.077-.779-.193v-57.5c0-.193.7-.329,1.558-.329H382.432c.857,0,1.558.155,1.558.329V91.651c0,.116-.311.193-.779.193H116.779Z" transform="translate(-71.83 440.04)" fill="#bebebe" stroke="#fff" stroke-width="1"/></g><g transform="translate(94 -71)"><path d="M288.71,251.594H117.01a.935.935,0,0,1-1.01-.827V193.7H289.72v57.067A.935.935,0,0,1,288.71,251.594Z" transform="translate(-116 -122.549)" fill="#fff"/><g transform="translate(8.314 78.158)"><g transform="matrix(1, 0, 0, 1, -146.49, -481)" filter="url(#bs)"><rect width="86" height="10" rx="2" transform="translate(146 481)" fill="url(#j)"/></g><g transform="matrix(1, 0, 0, 1, -146.49, -481)" filter="url(#bu)"><rect width="150" height="5" rx="2" transform="translate(146 497)" fill="#545454"/></g><g transform="matrix(1, 0, 0, 1, -146.49, -481)" filter="url(#bw)"><rect width="115" height="5" rx="2" transform="translate(146 505)" fill="#545454"/></g><g transform="matrix(1, 0, 0, 1, -146.49, -481)" filter="url(#bz)"><rect width="71" height="10" rx="2" transform="translate(232 517)" fill="url(#q)"/></g><g transform="matrix(1, 0, 0, 1, -146.49, -481)" filter="url(#cc)"><rect width="72" height="10" rx="2" transform="translate(146 517)" fill="url(#t)"/></g></g></g></g></g></g><g transform="translate(451 -11)"><g transform="matrix(1, 0, 0, 1, 868, 194)" filter="url(#ce)"><rect width="197" height="498" transform="translate(27 45)" fill="#e0ebf8"/></g><g transform="translate(894 239)"><g transform="translate(1)"><rect width="197" height="39" fill="#1b222b"/></g><g transform="matrix(1, 0, 0, 1, -26, -45)" filter="url(#ch)"><rect width="147" height="14" rx="2" transform="translate(42 163)" fill="url(#cg)"/></g><g transform="matrix(1, 0, 0, 1, -26, -45)" filter="url(#ck)"><rect width="82" height="14" rx="2" transform="translate(42 213)" fill="url(#cg)"/></g><g transform="matrix(1, 0, 0, 1, -26, -45)" filter="url(#cn)"><rect width="69" height="15" rx="2" transform="translate(42 262)" fill="url(#cg)"/></g><g transform="matrix(1, 0, 0, 1, -26, -45)" filter="url(#cq)"><rect width="147" height="13" rx="2" transform="translate(42 308)" fill="url(#cg)"/></g><g transform="matrix(1, 0, 0, 1, -26, -45)" filter="url(#ct)"><rect width="138" height="13" rx="2" transform="translate(42 355)" fill="url(#cg)"/></g><g transform="matrix(1, 0, 0, 1, -26, -45)" filter="url(#cw)"><rect width="118" height="14" rx="2" transform="translate(42 402)" fill="url(#cg)"/></g><g transform="matrix(1, 0, 0, 1, -26, -45)" filter="url(#cz)"><rect width="57" height="13" rx="2" transform="translate(42 115)" fill="url(#t)"/></g><g transform="translate(0 4)" clip-path="url(#db)"><g transform="translate(-1174 -181)"><g transform="matrix(1, 0, 0, 1, 1148, 132)" filter="url(#dc)"><rect width="22" height="4" rx="2" transform="translate(35 55)" fill="#e0ebf8"/></g></g><g transform="translate(-1174 -173)"><g transform="matrix(1, 0, 0, 1, 1148, 124)" filter="url(#de)"><rect width="22" height="4" rx="2" transform="translate(35 63)" fill="#e0ebf8"/></g></g><g transform="translate(-1174 -165)"><g transform="matrix(1, 0, 0, 1, 1148, 116)" filter="url(#dg)"><rect width="22" height="4" rx="2" transform="translate(35 71)" fill="#e0ebf8"/></g></g><g transform="translate(-1174 -157)"><g transform="matrix(1, 0, 0, 1, 1148, 108)" filter="url(#di)"><rect width="22" height="4" rx="2" transform="translate(35 79)" fill="#e0ebf8"/></g></g></g><g transform="matrix(1, 0, 0, 1, -26, -45)" filter="url(#dl)"><rect width="83" height="14" rx="2" transform="translate(41 466)" fill="url(#t)"/></g><g transform="matrix(1, 0, 0, 1, -26, -45)" filter="url(#do)"><rect width="109" height="14" rx="2" transform="translate(41 499)" fill="url(#dn)"/></g></g></g></g></svg>